# xmcd
#
# Track frame offsets: 
#        150
#        10947
#        24233
#        37019
#        49425
#        62340
#        74069
#        85687
#        97182
#        109485
#        121186
#        133693
#        145879
#        158041
#        172328
#        184890
#        196681
#        209743
#        221479
#        234664
#        248485
#        260419
#        270843
#        281859
#        296846
#        308676
#
# Disc length: 4264 seconds
#
# Revision: 0
# Processed by: cddbd v1.4PL0 Copyright (c) Steve Scherf et al.
# Submitted via: ExactAudioCopy v0.95a3
#
DISCID=8e10a61a
DTITLE=Muddy Waters - Aristocrat of the Blues, 1946-48
DYEAR=1999
DGENRE=Blues
TTITLE0=Mean Red Spider
TTITLE1=Jitterbug Blues
TTITLE2=Hard Day Blues
TTITLE3=Burying Ground Blues
TTITLE4=Johnson Machine Gun
TTITLE5=Fly Right, Little Girl
TTITLE6=Gypsy Woman
TTITLE7=Little Anna Mae
TTITLE8=Good Lookin' Woman
TTITLE9=Mean Disposition
TTITLE10=She Ain't Nowhere
TTITLE11=My Baby My Baby
TTITLE12=I Can't Be Satisfied
TTITLE13=Feel Like Going Home
TTITLE14=Train Fare Home
TTITLE15=Kind Hearted Woman
TTITLE16=Down South Blues
TTITLE17=Sittin' Here Drinkin'
TTITLE18=Florida Hurricane
TTITLE19=So Nice and Kind
TTITLE20=You're Gonna Miss Me
TTITLE21=Mean Red Spider (no. 2)
TTITLE22=Standin' Here Tremblin'
TTITLE23=Streamline Woman
TTITLE24=Hard Days
TTITLE25=Muddy Jumps One
EXTD=
EXTT0=
EXTT1=
EXTT2=
EXTT3=
EXTT4=
EXTT5=
EXTT6=
EXTT7=
EXTT8=
EXTT9=
EXTT10=
EXTT11=
EXTT12=
EXTT13=
EXTT14=
EXTT15=
EXTT16=
EXTT17=
EXTT18=
EXTT19=
EXTT20=
EXTT21=
EXTT22=
EXTT23=
EXTT24=
EXTT25=
PLAYORDER=
